<svg width="12" height="7" viewBox="0 0 12 7" fill="none" xmlns="http://www.w3.org/2000/svg">
<path d="M10.9999 6.33C10.8126 6.51625 10.5591 6.62079 10.2949 6.62079C10.0308 6.62079 9.77731 6.51625 9.58995 6.33L5.99995 2.79L2.45995 6.33C2.27259 6.51625 2.01913 6.62079 1.75495 6.62079C1.49076 6.62079 1.23731 6.51625 1.04995 6.33C0.95622 6.23703 0.881826 6.12643 0.831057 6.00457C0.780288 5.88271 0.75415 5.75201 0.75415 5.62C0.75415 5.48798 0.780288 5.35728 0.831057 5.23542C0.881826 5.11356 0.95622 5.00296 1.04995 4.91L5.28995 0.669996C5.38291 0.576268 5.49351 0.501874 5.61537 0.451105C5.73723 0.400336 5.86794 0.374198 5.99995 0.374198C6.13196 0.374198 6.26267 0.400336 6.38453 0.451105C6.50638 0.501874 6.61699 0.576268 6.70995 0.669996L10.9999 4.91C11.0937 5.00296 11.1681 5.11356 11.2188 5.23542C11.2696 5.35728 11.2957 5.48798 11.2957 5.62C11.2957 5.75201 11.2696 5.88271 11.2188 6.00457C11.1681 6.12643 11.0937 6.23703 10.9999 6.33Z" fill="black"/>
</svg>
